<?xml version="1.0" standalone="no"?>
<!DOCTYPE svg PUBLIC "-//W3C//DTD SVG 20010904//EN"
 "http://www.w3.org/TR/2001/REC-SVG-20010904/DTD/svg10.dtd">
<svg version="1.0" xmlns="http://www.w3.org/2000/svg"
 width="360.000000pt" height="360.000000pt" viewBox="0 0 360.000000 360.000000"
 preserveAspectRatio="xMidYMid meet">

<g transform="translate(0.000000,360.000000) scale(0.100000,-0.100000)"
fill="#000000" stroke="none">
<path d="M1605 3594 c-459 -44 -916 -292 -1205 -654 -196 -246 -303 -473 -371
-790 -20 -93 -23 -133 -23 -350 0 -218 2 -256 23 -350 67 -307 173 -539 354
-770 232 -295 584 -529 937 -621 186 -49 263 -57 505 -54 228 2 347 17 475 57
438 139 762 378 1007 743 136 204 221 417 274 690 19 96 19 503 0 605 -96 518
-363 924 -801 1217 -181 121 -396 207 -650 259 -72 15 -431 27 -525 18z m1335
-809 l0 -114 -147 -3 -148 -3 -3 -898 -2 -898 -193 3 -193 3 57 -55 c47 -46
59 -64 69 -108 24 -105 -17 -206 -107 -259 -40 -23 -59 -28 -118 -28 -59 0
-78 5 -118 28 -125 74 -152 242 -56 351 22 25 49 48 59 51 11 4 20 9 20 13 0
4 -169 7 -375 7 -205 0 -371 -2 -367 -6 4 -3 24 -18 46 -33 71 -53 103 -161
75 -260 -14 -51 -91 -128 -145 -144 -204 -60 -379 141 -284 327 18 36 65 83
105 107 14 8 -11 9 -93 6 l-112 -4 0 120 0 119 749 -5 749 -5 4 87 3 86 -677
0 -677 0 -16 58 c-9 31 -27 93 -40 137 -13 44 -31 107 -41 140 -9 33 -59 204
-110 379 -52 176 -94 323 -94 328 0 4 371 8 825 8 l825 0 0 290 0 290 265 0
265 0 0 -115z"/>
</g>
</svg>
